<svg xmlns="http://www.w3.org/2000/svg" xmlns:xlink="http://www.w3.org/1999/xlink" width="500" zoomAndPan="magnify" viewBox="0 0 375 374.999991" height="500" preserveAspectRatio="xMidYMid meet" version="1.0"><defs><g/></defs><g fill="#ffffff" fill-opacity="1"><g transform="translate(4.611617, 221.623865)"><g><path d="M -1.296875 -69.328125 L -1.296875 -74.203125 C 0.660156 -74.160156 1.847656 -74.117188 2.265625 -74.078125 C 6.898438 -73.554688 12.992188 -73.296875 20.546875 -73.296875 C 21.671875 -73.296875 23.972656 -73.40625 27.453125 -73.625 C 29.941406 -73.8125 31.804688 -74.003906 33.046875 -74.203125 L 37.1875 -74.203125 C 37.257812 -71.441406 37.296875 -69.894531 37.296875 -69.5625 C 33.523438 -69.0625 31.316406 -68.738281 30.671875 -68.59375 C 29.015625 -68.132812 27.789062 -67.53125 27 -66.78125 C 26.582031 -66.363281 26.375 -65.875 26.375 -65.3125 C 26.375 -64.894531 26.410156 -64.476562 26.484375 -64.0625 L 28.359375 -59.140625 C 29.671875 -55.296875 31.859375 -50.070312 34.921875 -43.46875 L 41.375 -28.859375 C 42.613281 -26.035156 43.742188 -23.359375 44.765625 -20.828125 L 48.046875 -28.859375 L 54.78125 -47.546875 L 56.375 -51.5 C 56.5625 -52.0625 56.804688 -52.851562 57.109375 -53.875 C 58.085938 -57.238281 58.90625 -59.785156 59.5625 -61.515625 C 60.226562 -63.253906 60.5625 -64.671875 60.5625 -65.765625 C 60.5625 -66.484375 60.203125 -67.101562 59.484375 -67.625 C 58.390625 -68.457031 56.597656 -68.988281 54.109375 -69.21875 C 53.578125 -69.363281 52.875 -69.484375 52 -69.578125 C 51.132812 -69.671875 50.363281 -69.796875 49.6875 -69.953125 C 49.457031 -70.703125 49.34375 -71.269531 49.34375 -71.65625 C 49.34375 -72.144531 49.421875 -73.007812 49.578125 -74.25 C 50.253906 -74.25 52.195312 -74.097656 55.40625 -73.796875 C 58.613281 -73.492188 61.742188 -73.34375 64.796875 -73.34375 C 67.929688 -73.34375 70.609375 -73.484375 72.828125 -73.765625 C 75.054688 -74.054688 76.867188 -74.21875 78.265625 -74.25 L 78.265625 -72.4375 C 78.265625 -71.988281 78.25 -71.3125 78.21875 -70.40625 C 73.34375 -68.632812 70.492188 -67.425781 69.671875 -66.78125 C 69.140625 -66.40625 68.628906 -65.785156 68.140625 -64.921875 C 66.703125 -62.390625 64.515625 -57.273438 61.578125 -49.578125 L 54.328125 -30.84375 C 53.648438 -29.03125 52.90625 -27.113281 52.09375 -25.09375 C 51.28125 -23.082031 50.421875 -20.867188 49.515625 -18.453125 C 49.328125 -17.878906 48.441406 -15.613281 46.859375 -11.65625 L 46.296875 -10.640625 C 44.628906 -5.316406 43.382812 -1.640625 42.5625 0.390625 C 41.050781 0.472656 40.109375 0.515625 39.734375 0.515625 C 39.015625 0.515625 38.015625 0.472656 36.734375 0.390625 C 36.316406 -0.734375 35.898438 -1.878906 35.484375 -3.046875 C 35.066406 -4.222656 33.460938 -8.320312 30.671875 -15.34375 L 19.984375 -39.328125 L 13.578125 -54.78125 C 10.296875 -61.800781 8.503906 -65.554688 8.203125 -66.046875 C 7.566406 -66.992188 6.847656 -67.671875 6.046875 -68.078125 C 5.253906 -68.492188 3.613281 -68.816406 1.125 -69.046875 Z M -1.296875 -69.328125 "/></g></g></g><g fill="#ffffff" fill-opacity="1"><g transform="translate(81.861701, 221.623865)"><g><path d="M 4.859375 -30.328125 C 5.847656 -33.535156 6.71875 -35.671875 7.46875 -36.734375 C 9.582031 -39.828125 11.835938 -42.238281 14.234375 -43.96875 C 16.628906 -45.707031 18.789062 -46.859375 20.71875 -47.421875 C 23.207031 -48.140625 25.222656 -48.5 26.765625 -48.5 C 30.316406 -48.5 33.1875 -48.222656 35.375 -47.671875 C 37.5625 -47.128906 39.390625 -46.347656 40.859375 -45.328125 C 42.972656 -43.859375 44.671875 -42.367188 45.953125 -40.859375 C 47.234375 -39.347656 48.28125 -37.570312 49.09375 -35.53125 C 49.90625 -33.5 50.347656 -31.03125 50.421875 -28.125 L 44.140625 -28.234375 C 42.410156 -28.234375 38.601562 -28.40625 32.71875 -28.75 C 30.519531 -28.90625 29.007812 -28.984375 28.1875 -28.984375 C 27.914062 -28.984375 25.878906 -28.960938 22.078125 -28.921875 L 17.203125 -28.921875 C 17.128906 -28.390625 17.09375 -27.9375 17.09375 -27.5625 C 17.09375 -25.5625 17.335938 -23.457031 17.828125 -21.25 C 18.316406 -19.039062 19.050781 -17.097656 20.03125 -15.421875 C 21.007812 -13.742188 22.222656 -12.300781 23.671875 -11.09375 C 25.128906 -9.882812 26.632812 -9.015625 28.1875 -8.484375 L 31.46875 -7.40625 C 34.375 -7.40625 36.316406 -7.503906 37.296875 -7.703125 C 39.109375 -8.078125 40.703125 -8.554688 42.078125 -9.140625 C 43.453125 -9.722656 45.125 -10.710938 47.09375 -12.109375 C 48.445312 -11.128906 49.578125 -10.242188 50.484375 -9.453125 C 47.160156 -5.796875 43.71875 -3.144531 40.15625 -1.5 C 36.59375 0.144531 32.601562 0.96875 28.1875 0.96875 C 25.207031 0.96875 22.773438 0.703125 20.890625 0.171875 C 18.359375 -0.503906 16.070312 -1.539062 14.03125 -2.9375 C 12 -4.332031 10.242188 -6.066406 8.765625 -8.140625 C 7.296875 -10.222656 6.203125 -12.359375 5.484375 -14.546875 C 4.546875 -17.410156 4.078125 -19.710938 4.078125 -21.453125 C 4.078125 -24.734375 4.335938 -27.691406 4.859375 -30.328125 Z M 37.75 -32.765625 C 37.707031 -34.878906 37.289062 -36.894531 36.5 -38.8125 C 35.707031 -40.738281 34.476562 -42.238281 32.8125 -43.3125 C 31.15625 -44.394531 29.476562 -44.9375 27.78125 -44.9375 C 25.257812 -44.9375 22.976562 -43.820312 20.9375 -41.59375 C 18.90625 -39.375 17.753906 -36.359375 17.484375 -32.546875 L 30.390625 -32.484375 C 31.222656 -32.484375 32.394531 -32.539062 33.90625 -32.65625 C 35 -32.769531 35.769531 -32.828125 36.21875 -32.828125 C 36.5625 -32.828125 37.070312 -32.804688 37.75 -32.765625 Z M 37.75 -32.765625 "/></g></g></g><g fill="#ffffff" fill-opacity="1"><g transform="translate(136.19143, 221.623865)"><g><path d="M 2.203125 -3.109375 C 2.691406 -3.523438 3.332031 -3.828125 4.125 -4.015625 C 6.050781 -4.429688 7.882812 -5.1875 9.625 -6.28125 C 9.957031 -7.1875 10.125 -10.242188 10.125 -15.453125 C 10.125 -24.992188 9.921875 -31.445312 9.515625 -34.8125 C 9.429688 -35.414062 9.128906 -35.941406 8.609375 -36.390625 C 7.660156 -36.878906 6.375 -37.3125 4.75 -37.6875 C 4 -37.875 3.546875 -38.289062 3.390625 -38.9375 L 3.21875 -41.03125 C 6.007812 -41.40625 8.535156 -42.359375 10.796875 -43.890625 C 13.066406 -45.421875 14.769531 -46.976562 15.90625 -48.5625 C 16.507812 -49.425781 17.035156 -50.085938 17.484375 -50.546875 L 21.453125 -50.703125 C 21.640625 -49.835938 21.734375 -49.125 21.734375 -48.5625 C 21.734375 -48.144531 21.710938 -47.632812 21.671875 -47.03125 C 21.640625 -45.707031 21.625 -44.613281 21.625 -43.75 C 21.625 -43.332031 21.640625 -41.765625 21.671875 -39.046875 C 23.222656 -41.691406 24.359375 -43.46875 25.078125 -44.375 C 25.410156 -44.789062 26.410156 -45.710938 28.078125 -47.140625 C 29.359375 -48.085938 30.804688 -48.5625 32.421875 -48.5625 C 34.421875 -48.5625 36.15625 -47.878906 37.625 -46.515625 C 39.101562 -45.160156 39.84375 -43.597656 39.84375 -41.828125 C 39.84375 -40.046875 39.285156 -38.445312 38.171875 -37.03125 C 37.054688 -35.625 35.578125 -34.921875 33.734375 -34.921875 C 32.109375 -34.921875 30.410156 -35.597656 28.640625 -36.953125 C 27.578125 -37.785156 26.726562 -38.203125 26.09375 -38.203125 L 25.6875 -38.140625 C 24.894531 -37.878906 24.179688 -37.164062 23.546875 -36 C 22.484375 -34.113281 21.953125 -32.148438 21.953125 -30.109375 L 22.078125 -28.578125 C 22.222656 -25.785156 22.332031 -19.238281 22.40625 -8.9375 C 22.519531 -8 22.878906 -7.054688 23.484375 -6.109375 C 24.160156 -5.578125 24.847656 -5.195312 25.546875 -4.96875 C 26.242188 -4.75 27.460938 -4.5625 29.203125 -4.40625 C 30.941406 -4.257812 32 -4.023438 32.375 -3.703125 C 32.75 -3.378906 32.9375 -2.863281 32.9375 -2.15625 C 32.9375 -1.738281 32.820312 -1.191406 32.59375 -0.515625 L 27.28125 -0.515625 L 16.46875 -1.078125 C 13.75 -1.078125 11.28125 -0.960938 9.0625 -0.734375 L 8.09375 -0.734375 C 7.832031 -0.734375 5.867188 -0.640625 2.203125 -0.453125 C 2.085938 -1.054688 2.03125 -1.507812 2.03125 -1.8125 C 2.03125 -2.113281 2.085938 -2.546875 2.203125 -3.109375 Z M 2.203125 -3.109375 "/></g></g></g><g fill="#ffffff" fill-opacity="1"><g transform="translate(176.033232, 221.623865)"><g><path d="M 5.09375 -16.1875 C 6.226562 -16.414062 7.054688 -16.53125 7.578125 -16.53125 C 7.847656 -16.53125 8.242188 -16.507812 8.765625 -16.46875 L 9.28125 -15.90625 C 11.320312 -12.320312 12.660156 -10.148438 13.296875 -9.390625 C 14.617188 -7.847656 15.921875 -6.601562 17.203125 -5.65625 C 18.066406 -5.050781 19.425781 -4.429688 21.28125 -3.796875 C 22.519531 -3.335938 23.835938 -3.109375 25.234375 -3.109375 C 27.617188 -3.109375 29.660156 -3.875 31.359375 -5.40625 C 33.054688 -6.9375 33.90625 -8.585938 33.90625 -10.359375 C 33.90625 -11.566406 33.582031 -12.59375 32.9375 -13.4375 C 32.289062 -14.289062 31.007812 -15.128906 29.09375 -15.953125 C 28.144531 -16.367188 25.773438 -17.046875 21.984375 -17.984375 C 18.191406 -18.929688 15.898438 -19.554688 15.109375 -19.859375 C 13.335938 -20.546875 11.757812 -21.488281 10.375 -22.6875 C 9 -23.894531 7.957031 -25.253906 7.25 -26.765625 C 6.257812 -28.921875 5.765625 -30.769531 5.765625 -32.3125 C 5.765625 -35.175781 6.179688 -37.523438 7.015625 -39.359375 C 7.847656 -41.191406 9.019531 -42.804688 10.53125 -44.203125 C 11.625 -45.253906 13.273438 -46.210938 15.484375 -47.078125 C 17.691406 -47.953125 20.054688 -48.390625 22.578125 -48.390625 C 26.160156 -48.390625 29.3125 -48.144531 32.03125 -47.65625 C 34.75 -47.164062 37.050781 -46.429688 38.9375 -45.453125 C 39.164062 -44.578125 39.484375 -42.570312 39.890625 -39.4375 C 40.304688 -36.3125 40.515625 -34.46875 40.515625 -33.90625 C 40.515625 -33.632812 40.460938 -33.347656 40.359375 -33.046875 C 39.367188 -32.742188 38.554688 -32.59375 37.921875 -32.59375 C 37.546875 -32.59375 37 -32.632812 36.28125 -32.71875 C 35.9375 -33.238281 35.484375 -34.03125 34.921875 -35.09375 C 33.109375 -38.445312 31.25 -40.8125 29.34375 -42.1875 C 27.4375 -43.5625 25.238281 -44.25 22.75 -44.25 C 20.144531 -44.25 17.957031 -43.5 16.1875 -42 C 14.90625 -40.90625 14.265625 -39.410156 14.265625 -37.515625 C 14.265625 -36.273438 14.941406 -35.015625 16.296875 -33.734375 C 17.617188 -32.410156 19.921875 -31.410156 23.203125 -30.734375 C 28.148438 -29.640625 31.789062 -28.546875 34.125 -27.453125 C 37.519531 -25.867188 39.90625 -24 41.28125 -21.84375 C 42.664062 -19.695312 43.359375 -17.207031 43.359375 -14.375 C 43.359375 -10 41.707031 -6.347656 38.40625 -3.421875 C 35.101562 -0.492188 30.28125 0.96875 23.9375 0.96875 C 23.101562 0.96875 20.9375 0.773438 17.4375 0.390625 C 15.84375 0.203125 13.972656 -0.171875 11.828125 -0.734375 C 11.296875 -0.890625 9.921875 -1.4375 7.703125 -2.375 C 7.285156 -2.601562 6.988281 -2.875 6.8125 -3.1875 C 6.644531 -3.507812 6.394531 -5.085938 6.0625 -7.921875 C 5.457031 -12.523438 5.132812 -15.28125 5.09375 -16.1875 Z M 5.09375 -16.1875 "/></g></g></g><g fill="#ffffff" fill-opacity="1"><g transform="translate(224.30746, 221.623865)"><g><path d="M 52.34375 -10.984375 L 53.65625 -10.125 C 53.988281 -9.863281 54.195312 -9.546875 54.28125 -9.171875 L 54.328125 -8.890625 C 53.421875 -5.523438 52.234375 -3.210938 50.765625 -1.953125 C 49.296875 -0.691406 47.46875 -0.0625 45.28125 -0.0625 C 43.050781 -0.0625 41.132812 -0.671875 39.53125 -1.890625 C 37.925781 -3.117188 36.460938 -5.28125 35.140625 -8.375 C 33.523438 -5.507812 31.242188 -3.347656 28.296875 -1.890625 C 25.359375 -0.441406 21.753906 0.28125 17.484375 0.28125 C 13.566406 0.28125 10.679688 -0.535156 8.828125 -2.171875 C 6.984375 -3.816406 6.0625 -5.976562 6.0625 -8.65625 C 6.0625 -9.90625 6.332031 -11.171875 6.875 -12.453125 C 7.425781 -13.734375 8.3125 -15.003906 9.53125 -16.265625 C 10.757812 -17.535156 12.734375 -18.925781 15.453125 -20.4375 C 15.867188 -20.65625 17.300781 -21.296875 19.75 -22.359375 L 33.84375 -28.015625 C 33.957031 -29.453125 34.015625 -30.90625 34.015625 -32.375 C 34.015625 -37.46875 33.390625 -40.9375 32.140625 -42.78125 C 31.390625 -43.914062 30.070312 -44.484375 28.1875 -44.484375 C 26.300781 -44.484375 24.5625 -44.125 22.96875 -43.40625 C 21.382812 -42.6875 20.238281 -41.765625 19.53125 -40.640625 C 19 -39.804688 18.546875 -38.238281 18.171875 -35.9375 C 17.898438 -34.28125 17.65625 -33.316406 17.4375 -33.046875 C 16.863281 -32.328125 15.832031 -31.675781 14.34375 -31.09375 C 12.851562 -30.507812 11.84375 -30.085938 11.3125 -29.828125 C 9.28125 -28.847656 7.660156 -28.359375 6.453125 -28.359375 C 5.921875 -28.804688 5.65625 -29.445312 5.65625 -30.28125 C 5.65625 -32.425781 6.109375 -34.273438 7.015625 -35.828125 C 8.378906 -38.015625 10.425781 -40.132812 13.15625 -42.1875 C 15.894531 -44.25 18.453125 -45.691406 20.828125 -46.515625 C 24.066406 -47.578125 28.03125 -48.109375 32.71875 -48.109375 C 35.726562 -48.109375 38.316406 -47.550781 40.484375 -46.4375 C 42.660156 -45.320312 44.171875 -43.671875 45.015625 -41.484375 C 45.867188 -39.296875 46.296875 -35.351562 46.296875 -29.65625 L 46.125 -20.3125 L 46.234375 -13.46875 L 46.234375 -11.71875 C 46.234375 -10.132812 46.453125 -9.046875 46.890625 -8.453125 C 47.328125 -7.867188 47.882812 -7.578125 48.5625 -7.578125 C 48.976562 -7.578125 49.335938 -7.691406 49.640625 -7.921875 L 51.328125 -10.578125 Z M 33.78125 -24.109375 C 31.632812 -23.390625 29.210938 -22.191406 26.515625 -20.515625 C 23.816406 -18.835938 21.941406 -17.148438 20.890625 -15.453125 C 20.128906 -14.203125 19.75 -12.671875 19.75 -10.859375 C 19.75 -9.242188 20.238281 -7.90625 21.21875 -6.84375 C 22.195312 -5.789062 23.332031 -5.265625 24.625 -5.265625 C 26.726562 -5.265625 28.519531 -5.867188 30 -7.078125 C 32 -8.703125 33.164062 -9.992188 33.5 -10.953125 C 33.84375 -11.910156 34.015625 -14.632812 34.015625 -19.125 C 34.015625 -20.789062 33.9375 -22.453125 33.78125 -24.109375 Z M 33.78125 -24.109375 "/></g></g></g><g fill="#ffffff" fill-opacity="1"><g transform="translate(279.825652, 221.623865)"><g><path d="M 0.390625 -2.828125 C 1.222656 -3.390625 2.316406 -3.75 3.671875 -3.90625 C 6.273438 -4.207031 7.769531 -4.601562 8.15625 -5.09375 C 8.90625 -6.070312 9.28125 -8.070312 9.28125 -11.09375 L 9.28125 -27.046875 L 9.21875 -30.84375 L 9.21875 -42.28125 L 9.0625 -55.34375 L 9.0625 -57.609375 C 9.0625 -60.703125 8.8125 -62.988281 8.3125 -64.46875 C 7 -65.257812 5.585938 -65.65625 4.078125 -65.65625 C 3.171875 -65.65625 2.320312 -65.75 1.53125 -65.9375 C 1.414062 -66.875 1.359375 -67.570312 1.359375 -68.03125 C 1.359375 -68.332031 1.394531 -68.671875 1.46875 -69.046875 C 4.445312 -69.390625 7.539062 -70.15625 10.75 -71.34375 C 13.957031 -72.53125 16.410156 -73.742188 18.109375 -74.984375 L 19.6875 -75.046875 C 20.03125 -75.046875 20.523438 -75.023438 21.171875 -74.984375 C 21.359375 -61.929688 21.453125 -52.988281 21.453125 -48.15625 C 21.453125 -46.726562 21.429688 -45.578125 21.390625 -44.703125 L 21.390625 -44.375 L 21.453125 -43.296875 L 21.453125 -18.21875 L 21.5 -9.953125 L 21.5 -8.609375 C 21.5 -6.984375 21.765625 -5.832031 22.296875 -5.15625 C 22.753906 -4.664062 23.71875 -4.363281 25.1875 -4.25 C 25.976562 -4.164062 27.539062 -3.972656 29.875 -3.671875 C 30.070312 -2.878906 30.171875 -2.238281 30.171875 -1.75 C 30.171875 -1.375 30.128906 -0.847656 30.046875 -0.171875 L 25.578125 -0.390625 C 23.085938 -0.578125 19.957031 -0.671875 16.1875 -0.671875 L 14.09375 -0.734375 C 11.9375 -0.734375 8.820312 -0.5625 4.75 -0.21875 L 0.625 -0.21875 Z M 0.390625 -2.828125 "/></g></g></g><g fill="#ffffff" fill-opacity="1"><g transform="translate(309.989971, 221.623865)"><g><path d="M 49.015625 -41.59375 C 51.429688 -39.257812 53.234375 -36.570312 54.421875 -33.53125 C 55.609375 -30.5 56.203125 -27.640625 56.203125 -24.953125 C 56.203125 -19.898438 55.425781 -15.828125 53.875 -12.734375 C 51.539062 -8.054688 48.390625 -4.601562 44.421875 -2.375 C 40.460938 -0.144531 35.863281 0.96875 30.625 0.96875 C 24.726562 0.96875 19.734375 -0.351562 15.640625 -3 C 11.554688 -5.644531 8.632812 -8.644531 6.875 -12 C 5.125 -15.351562 4.25 -19.519531 4.25 -24.5 C 4.25 -27.03125 4.660156 -29.566406 5.484375 -32.109375 C 6.316406 -34.660156 7.457031 -36.878906 8.90625 -38.765625 C 10.363281 -40.648438 11.960938 -42.234375 13.703125 -43.515625 C 16.222656 -45.328125 18.753906 -46.617188 21.296875 -47.390625 C 23.847656 -48.171875 26.9375 -48.5625 30.5625 -48.5625 C 38.445312 -48.5625 44.597656 -46.238281 49.015625 -41.59375 Z M 18.046875 -22.015625 C 18.390625 -17.335938 18.640625 -14.640625 18.796875 -13.921875 C 19.285156 -11.390625 20.054688 -9.21875 21.109375 -7.40625 C 21.828125 -6.238281 23.015625 -5.203125 24.671875 -4.296875 C 26.335938 -3.390625 28.320312 -2.9375 30.625 -2.9375 C 33.375 -2.9375 35.691406 -3.8125 37.578125 -5.5625 C 39.460938 -7.320312 40.820312 -10.070312 41.65625 -13.8125 C 42.1875 -16.257812 42.453125 -20.273438 42.453125 -25.859375 C 42.453125 -32.734375 41.316406 -37.59375 39.046875 -40.4375 C 36.785156 -43.28125 33.804688 -44.703125 30.109375 -44.703125 C 27.203125 -44.703125 24.796875 -43.890625 22.890625 -42.265625 C 20.984375 -40.648438 19.65625 -38.257812 18.90625 -35.09375 C 18.414062 -33.050781 18.128906 -28.691406 18.046875 -22.015625 Z M 18.046875 -22.015625 "/></g></g></g></svg>