<svg xmlns="http://www.w3.org/2000/svg" xmlns:xlink="http://www.w3.org/1999/xlink" width="500" zoomAndPan="magnify" viewBox="0 0 375 374.999991" height="500" preserveAspectRatio="xMidYMid meet" version="1.0"><defs><g/></defs><g fill="#dc143c" fill-opacity="1"><g transform="translate(50.752981, 323.814407)"><g><path d="M -4.609375 -245.4375 L -4.609375 -262.671875 C 2.335938 -262.535156 6.546875 -262.398438 8.015625 -262.265625 C 24.441406 -260.390625 46.015625 -259.453125 72.734375 -259.453125 C 76.734375 -259.453125 84.878906 -259.851562 97.171875 -260.65625 C 105.984375 -261.332031 112.59375 -262.003906 117 -262.671875 L 131.640625 -262.671875 C 131.898438 -252.921875 132.03125 -247.441406 132.03125 -246.234375 C 118.675781 -244.492188 110.863281 -243.359375 108.59375 -242.828125 C 102.71875 -241.222656 98.375 -239.085938 95.5625 -236.421875 C 94.09375 -234.953125 93.359375 -233.210938 93.359375 -231.203125 C 93.359375 -229.734375 93.492188 -228.265625 93.765625 -226.796875 L 100.375 -209.375 C 105.050781 -195.75 112.800781 -177.25 123.625 -153.875 L 146.453125 -102.1875 C 150.867188 -92.164062 154.878906 -82.679688 158.484375 -73.734375 L 170.109375 -102.1875 L 193.9375 -168.296875 L 199.546875 -182.328125 C 200.222656 -184.328125 201.09375 -187.128906 202.15625 -190.734375 C 205.632812 -202.617188 208.539062 -211.632812 210.875 -217.78125 C 213.207031 -223.925781 214.375 -228.9375 214.375 -232.8125 C 214.375 -235.351562 213.109375 -237.554688 210.578125 -239.421875 C 206.703125 -242.359375 200.359375 -244.226562 191.546875 -245.03125 C 189.671875 -245.570312 187.195312 -246.007812 184.125 -246.34375 C 181.050781 -246.675781 178.3125 -247.109375 175.90625 -247.640625 C 175.101562 -250.304688 174.703125 -252.3125 174.703125 -253.65625 C 174.703125 -255.382812 174.972656 -258.453125 175.515625 -262.859375 C 177.921875 -262.859375 184.796875 -262.320312 196.140625 -261.25 C 207.492188 -260.1875 218.582031 -259.65625 229.40625 -259.65625 C 240.488281 -259.65625 249.96875 -260.15625 257.84375 -261.15625 C 265.726562 -262.164062 272.144531 -262.734375 277.09375 -262.859375 L 277.09375 -256.453125 C 277.09375 -254.847656 277.023438 -252.445312 276.890625 -249.25 C 259.660156 -242.96875 249.578125 -238.691406 246.640625 -236.421875 C 244.765625 -235.085938 242.960938 -232.882812 241.234375 -229.8125 C 236.148438 -220.863281 228.398438 -202.765625 217.984375 -175.515625 L 192.34375 -109.1875 C 189.9375 -102.78125 187.296875 -96.003906 184.421875 -88.859375 C 181.554688 -81.710938 178.519531 -73.863281 175.3125 -65.3125 C 174.644531 -63.3125 171.503906 -55.296875 165.890625 -41.265625 L 163.890625 -37.671875 C 158.015625 -18.835938 153.609375 -5.8125 150.671875 1.40625 C 145.328125 1.664062 141.988281 1.796875 140.65625 1.796875 C 138.113281 1.796875 134.570312 1.664062 130.03125 1.40625 C 128.5625 -2.601562 127.09375 -6.675781 125.625 -10.8125 C 124.15625 -14.957031 118.476562 -29.453125 108.59375 -54.296875 L 70.71875 -139.25 L 48.078125 -193.9375 C 36.460938 -218.78125 30.117188 -232.070312 29.046875 -233.8125 C 26.773438 -237.15625 24.238281 -239.5625 21.4375 -241.03125 C 18.632812 -242.5 12.820312 -243.632812 4 -244.4375 Z M -4.609375 -245.4375 "/></g></g></g></svg>