<svg xmlns="http://www.w3.org/2000/svg" xmlns:xlink="http://www.w3.org/1999/xlink" width="60" zoomAndPan="magnify" viewBox="0 0 45 44.999999" height="60" preserveAspectRatio="xMidYMid meet" version="1.0"><defs><clipPath id="846db1ae42"><path d="M 0 0.132812 L 44.773438 0.132812 L 44.773438 45 L 0 45 Z M 0 0.132812 " clip-rule="nonzero"/></clipPath></defs><g clip-path="url(#846db1ae42)"><path fill="#3998ff" d="M 44.742188 22.5 C 44.742188 23.234375 44.707031 23.964844 44.632812 24.691406 C 44.5625 25.421875 44.453125 26.144531 44.3125 26.863281 C 44.167969 27.582031 43.992188 28.289062 43.78125 28.992188 C 43.566406 29.691406 43.320312 30.378906 43.039062 31.058594 C 42.761719 31.734375 42.449219 32.394531 42.101562 33.039062 C 41.757812 33.6875 41.382812 34.3125 40.976562 34.921875 C 40.566406 35.53125 40.132812 36.121094 39.667969 36.683594 C 39.203125 37.25 38.710938 37.792969 38.195312 38.3125 C 37.675781 38.828125 37.136719 39.320312 36.570312 39.785156 C 36.003906 40.25 35.414062 40.683594 34.808594 41.09375 C 34.199219 41.5 33.570312 41.875 32.925781 42.21875 C 32.28125 42.566406 31.617188 42.878906 30.941406 43.15625 C 30.265625 43.4375 29.578125 43.683594 28.875 43.898438 C 28.175781 44.109375 27.464844 44.289062 26.746094 44.429688 C 26.03125 44.574219 25.304688 44.679688 24.578125 44.753906 C 23.847656 44.824219 23.117188 44.859375 22.386719 44.859375 C 21.652344 44.859375 20.921875 44.824219 20.195312 44.753906 C 19.464844 44.679688 18.742188 44.574219 18.023438 44.429688 C 17.304688 44.289062 16.597656 44.109375 15.894531 43.898438 C 15.195312 43.683594 14.507812 43.4375 13.828125 43.160156 C 13.152344 42.878906 12.492188 42.566406 11.847656 42.222656 C 11.199219 41.875 10.574219 41.5 9.964844 41.09375 C 9.355469 40.6875 8.769531 40.25 8.203125 39.785156 C 7.636719 39.320312 7.09375 38.832031 6.578125 38.3125 C 6.058594 37.792969 5.566406 37.253906 5.101562 36.6875 C 4.636719 36.121094 4.203125 35.535156 3.796875 34.925781 C 3.390625 34.316406 3.011719 33.6875 2.667969 33.042969 C 2.324219 32.398438 2.011719 31.734375 1.730469 31.058594 C 1.449219 30.382812 1.203125 29.695312 0.992188 28.992188 C 0.777344 28.292969 0.601562 27.582031 0.457031 26.863281 C 0.316406 26.148438 0.207031 25.421875 0.136719 24.695312 C 0.0625 23.964844 0.0273438 23.234375 0.0273438 22.503906 C 0.0273438 21.769531 0.0664062 21.039062 0.136719 20.3125 C 0.207031 19.582031 0.316406 18.859375 0.457031 18.140625 C 0.601562 17.421875 0.777344 16.714844 0.992188 16.011719 C 1.203125 15.3125 1.449219 14.625 1.730469 13.945312 C 2.011719 13.269531 2.324219 12.609375 2.667969 11.964844 C 3.015625 11.316406 3.390625 10.691406 3.796875 10.082031 C 4.203125 9.472656 4.640625 8.886719 5.105469 8.320312 C 5.570312 7.753906 6.058594 7.210938 6.578125 6.695312 C 7.097656 6.175781 7.636719 5.683594 8.203125 5.222656 C 8.769531 4.757812 9.359375 4.320312 9.964844 3.914062 C 10.574219 3.507812 11.203125 3.132812 11.847656 2.785156 C 12.496094 2.441406 13.15625 2.128906 13.832031 1.847656 C 14.507812 1.570312 15.195312 1.320312 15.898438 1.109375 C 16.597656 0.898438 17.308594 0.71875 18.027344 0.578125 C 18.746094 0.433594 19.46875 0.328125 20.195312 0.253906 C 20.925781 0.183594 21.65625 0.148438 22.386719 0.148438 C 23.121094 0.144531 23.851562 0.179688 24.582031 0.25 C 25.3125 0.316406 26.035156 0.421875 26.753906 0.5625 C 27.472656 0.703125 28.183594 0.882812 28.886719 1.09375 C 29.585938 1.304688 30.277344 1.546875 30.953125 1.828125 C 31.632812 2.105469 32.292969 2.417969 32.941406 2.761719 C 33.589844 3.109375 34.214844 3.484375 34.824219 3.890625 C 35.4375 4.296875 36.023438 4.730469 36.589844 5.195312 C 37.15625 5.660156 37.699219 6.152344 38.21875 6.671875 C 38.734375 7.1875 39.226562 7.730469 39.691406 8.296875 C 40.15625 8.863281 40.59375 9.453125 41 10.0625 C 41.40625 10.671875 41.78125 11.300781 42.125 11.949219 C 42.46875 12.59375 42.78125 13.257812 43.0625 13.933594 C 43.339844 14.613281 43.585938 15.300781 43.796875 16.003906 C 44.007812 16.703125 44.183594 17.414062 44.324219 18.132812 C 44.464844 18.855469 44.570312 19.578125 44.640625 20.308594 C 44.710938 21.035156 44.742188 21.769531 44.742188 22.5 Z M 44.742188 22.5 " fill-opacity="1" fill-rule="nonzero"/></g><path fill="#ffffff" d="M 39.632812 36.734375 C 39.105469 37.375 38.542969 37.980469 37.945312 38.558594 C 37.347656 39.136719 36.722656 39.679688 36.066406 40.1875 C 35.410156 40.695312 34.726562 41.164062 34.019531 41.597656 C 33.308594 42.027344 32.578125 42.417969 31.828125 42.769531 C 31.074219 43.121094 30.304688 43.429688 29.519531 43.691406 C 28.730469 43.957031 27.933594 44.179688 27.121094 44.355469 C 26.3125 44.53125 25.492188 44.660156 24.667969 44.746094 C 23.839844 44.828125 23.015625 44.867188 22.183594 44.859375 C 21.355469 44.851562 20.527344 44.796875 19.703125 44.699219 C 18.878906 44.597656 18.0625 44.453125 17.253906 44.265625 C 16.449219 44.074219 15.652344 43.839844 14.871094 43.558594 C 14.089844 43.28125 13.324219 42.960938 12.582031 42.59375 C 11.835938 42.230469 11.109375 41.828125 10.410156 41.382812 C 9.710938 40.9375 9.035156 40.457031 8.386719 39.9375 C 7.742188 39.417969 7.125 38.863281 6.539062 38.273438 C 5.953125 37.6875 5.402344 37.066406 4.886719 36.417969 C 7.265625 33.023438 10.960938 30.667969 18.722656 30.578125 C 27.679688 30.46875 34.269531 30.144531 36.992188 33.15625 C 37.984375 34.265625 38.863281 35.457031 39.632812 36.734375 Z M 39.632812 36.734375 " fill-opacity="1" fill-rule="nonzero"/><path fill="#14213d" d="M 14.980469 16.863281 C 10.683594 15.308594 11.382812 9.640625 11.992188 9.515625 C 12.605469 9.394531 13.914062 10.402344 13.976562 10.429688 C 14.035156 10.460938 13.671875 7.902344 14.492188 6.710938 C 15.316406 5.523438 18.457031 7.933594 20.863281 7.960938 C 23.273438 7.992188 29.097656 8.144531 30.804688 9.667969 C 32.507812 11.195312 31.625 14.457031 31.625 14.457031 C 31.625 14.457031 33.578125 14.972656 33.179688 17.71875 C 32.78125 20.460938 29.703125 22.816406 28.605469 24.792969 C 27.507812 26.769531 20.992188 27.136719 19.980469 24.273438 " fill-opacity="1" fill-rule="nonzero"/><path fill="#ffb5a6" d="M 22.0625 33.882812 C 18.9375 33.882812 18.476562 31.273438 18.464844 30.832031 C 18.464844 30.78125 18.457031 30.695312 18.464844 30.574219 C 18.457031 30.328125 18.457031 29.949219 18.457031 29.511719 C 18.46875 28.320312 18.484375 26.675781 18.464844 25.96875 L 24.429688 23.832031 L 25.515625 23.441406 L 26.71875 23.015625 C 26.71875 23.015625 26.710938 23.246094 26.699219 23.632812 C 26.691406 23.851562 26.6875 24.121094 26.679688 24.433594 C 26.679688 24.46875 26.679688 24.503906 26.671875 24.539062 C 26.667969 24.988281 26.660156 25.496094 26.648438 26.03125 C 26.628906 27.714844 26.621094 29.605469 26.710938 30.285156 C 26.875 31.609375 25.1875 33.882812 22.0625 33.882812 Z M 22.0625 33.882812 " fill-opacity="1" fill-rule="nonzero"/><path fill="#e86b70" d="M 26.722656 24.445312 C 26.707031 24.476562 26.691406 24.507812 26.671875 24.539062 C 24.554688 28.890625 21.375 30.617188 18.464844 30.574219 C 18.457031 30.328125 18.457031 29.949219 18.457031 29.511719 C 18.46875 28.320312 18.480469 26.675781 18.464844 25.96875 L 24.429688 23.832031 L 26.679688 24.433594 Z M 26.722656 24.445312 " fill-opacity="1" fill-rule="nonzero"/><path fill="#ffb5a6" d="M 14.863281 12.992188 C 18.339844 17.160156 26.921875 16.40625 26.921875 16.40625 C 26.921875 16.40625 27.082031 21.285156 27.9375 21.242188 C 28.792969 21.203125 28.933594 18.5 31.027344 18.949219 C 33.121094 19.394531 31.820312 23.4375 30.195312 23.664062 C 28.566406 23.886719 28.160156 22.503906 28.160156 22.503906 C 28.160156 22.503906 25.164062 28.449219 20.40625 28.449219 C 15.652344 28.449219 14.433594 23.890625 14.464844 21.40625 C 14.492188 18.921875 14.863281 12.992188 14.863281 12.992188 Z M 14.863281 12.992188 " fill-opacity="1" fill-rule="nonzero"/></svg>