<svg xmlns="http://www.w3.org/2000/svg" xmlns:xlink="http://www.w3.org/1999/xlink" width="60" zoomAndPan="magnify" viewBox="0 0 45 44.999999" height="60" preserveAspectRatio="xMidYMid meet" version="1.0"><defs><clipPath id="b108e2c9c9"><path d="M 1 0.75 L 45 0.75 L 45 45 L 1 45 Z M 1 0.75 " clip-rule="nonzero"/></clipPath></defs><g clip-path="url(#b108e2c9c9)"><path fill="#3998ff" d="M 44.96875 22.398438 C 44.96875 23.105469 44.9375 23.8125 44.867188 24.519531 C 44.796875 25.222656 44.691406 25.921875 44.554688 26.617188 C 44.417969 27.3125 44.246094 28 44.039062 28.679688 C 43.832031 29.355469 43.59375 30.023438 43.324219 30.675781 C 43.054688 31.332031 42.75 31.972656 42.417969 32.597656 C 42.082031 33.222656 41.71875 33.828125 41.324219 34.417969 C 40.929688 35.007812 40.511719 35.574219 40.058594 36.125 C 39.609375 36.671875 39.136719 37.195312 38.636719 37.695312 C 38.132812 38.199219 37.609375 38.671875 37.0625 39.125 C 36.515625 39.574219 35.945312 39.996094 35.355469 40.386719 C 34.765625 40.78125 34.160156 41.144531 33.535156 41.480469 C 32.910156 41.8125 32.269531 42.117188 31.617188 42.386719 C 30.960938 42.660156 30.292969 42.898438 29.617188 43.101562 C 28.9375 43.308594 28.253906 43.480469 27.558594 43.621094 C 26.863281 43.757812 26.160156 43.863281 25.457031 43.929688 C 24.75 44 24.042969 44.035156 23.335938 44.035156 C 22.628906 44.035156 21.921875 44 21.214844 43.929688 C 20.511719 43.863281 19.808594 43.757812 19.113281 43.621094 C 18.417969 43.480469 17.734375 43.308594 17.054688 43.105469 C 16.378906 42.898438 15.710938 42.660156 15.054688 42.386719 C 14.402344 42.117188 13.761719 41.816406 13.136719 41.480469 C 12.511719 41.148438 11.90625 40.78125 11.316406 40.390625 C 10.726562 39.996094 10.15625 39.574219 9.609375 39.125 C 9.0625 38.675781 8.539062 38.199219 8.035156 37.699219 C 7.535156 37.199219 7.058594 36.671875 6.609375 36.125 C 6.160156 35.578125 5.738281 35.007812 5.347656 34.417969 C 4.953125 33.832031 4.589844 33.222656 4.253906 32.597656 C 3.921875 31.972656 3.617188 31.332031 3.347656 30.679688 C 3.074219 30.023438 2.835938 29.359375 2.632812 28.679688 C 2.425781 28 2.253906 27.316406 2.117188 26.621094 C 1.976562 25.925781 1.875 25.226562 1.804688 24.519531 C 1.734375 23.816406 1.699219 23.109375 1.699219 22.398438 C 1.699219 21.691406 1.734375 20.984375 1.804688 20.277344 C 1.875 19.574219 1.976562 18.871094 2.117188 18.179688 C 2.253906 17.484375 2.425781 16.796875 2.632812 16.117188 C 2.835938 15.441406 3.074219 14.773438 3.347656 14.121094 C 3.617188 13.464844 3.921875 12.824219 4.253906 12.199219 C 4.589844 11.574219 4.953125 10.96875 5.347656 10.378906 C 5.742188 9.789062 6.164062 9.222656 6.613281 8.671875 C 7.0625 8.125 7.535156 7.601562 8.039062 7.101562 C 8.539062 6.597656 9.0625 6.125 9.613281 5.675781 C 10.160156 5.226562 10.726562 4.804688 11.316406 4.410156 C 11.90625 4.015625 12.511719 3.652344 13.136719 3.320312 C 13.761719 2.984375 14.402344 2.683594 15.058594 2.410156 C 15.710938 2.140625 16.378906 1.902344 17.058594 1.695312 C 17.734375 1.488281 18.421875 1.316406 19.117188 1.179688 C 19.8125 1.042969 20.511719 0.9375 21.21875 0.867188 C 21.921875 0.800781 22.628906 0.765625 23.339844 0.765625 C 24.046875 0.761719 24.753906 0.792969 25.460938 0.863281 C 26.167969 0.929688 26.867188 1.03125 27.5625 1.167969 C 28.257812 1.304688 28.945312 1.472656 29.625 1.679688 C 30.304688 1.882812 30.972656 2.121094 31.628906 2.390625 C 32.285156 2.660156 32.925781 2.960938 33.550781 3.296875 C 34.175781 3.628906 34.785156 3.992188 35.375 4.386719 C 35.964844 4.78125 36.535156 5.203125 37.082031 5.652344 C 37.632812 6.101562 38.15625 6.578125 38.65625 7.078125 C 39.160156 7.578125 39.632812 8.105469 40.085938 8.652344 C 40.535156 9.199219 40.957031 9.769531 41.347656 10.359375 C 41.742188 10.949219 42.105469 11.558594 42.4375 12.183594 C 42.773438 12.808594 43.074219 13.449219 43.34375 14.105469 C 43.613281 14.761719 43.851562 15.429688 44.054688 16.109375 C 44.261719 16.789062 44.429688 17.476562 44.566406 18.171875 C 44.703125 18.867188 44.804688 19.570312 44.875 20.273438 C 44.941406 20.980469 44.972656 21.6875 44.96875 22.398438 Z M 44.96875 22.398438 " fill-opacity="1" fill-rule="nonzero"/></g><path fill="#ffffff" d="M 40.027344 36.171875 C 39.515625 36.789062 38.96875 37.378906 38.394531 37.9375 C 37.816406 38.496094 37.210938 39.023438 36.574219 39.511719 C 35.941406 40.003906 35.28125 40.460938 34.59375 40.878906 C 33.90625 41.292969 33.199219 41.671875 32.472656 42.011719 C 31.746094 42.351562 31 42.648438 30.238281 42.90625 C 29.476562 43.160156 28.703125 43.375 27.917969 43.542969 C 27.132812 43.714844 26.34375 43.839844 25.542969 43.921875 C 24.746094 44.003906 23.945312 44.042969 23.140625 44.035156 C 22.335938 44.027344 21.539062 43.976562 20.738281 43.878906 C 19.941406 43.78125 19.152344 43.640625 18.371094 43.457031 C 17.589844 43.273438 16.820312 43.046875 16.0625 42.777344 C 15.308594 42.507812 14.570312 42.195312 13.847656 41.84375 C 13.125 41.492188 12.425781 41.101562 11.746094 40.667969 C 11.066406 40.238281 10.417969 39.773438 9.789062 39.269531 C 9.164062 38.765625 8.566406 38.230469 8 37.664062 C 7.433594 37.09375 6.902344 36.492188 6.402344 35.867188 C 8.707031 32.578125 12.277344 30.300781 19.789062 30.214844 C 28.460938 30.109375 34.835938 29.792969 37.472656 32.707031 C 38.429688 33.78125 39.28125 34.9375 40.027344 36.171875 Z M 40.027344 36.171875 " fill-opacity="1" fill-rule="nonzero"/><path fill="#14213d" d="M 16.171875 16.941406 C 12.011719 15.4375 12.6875 9.949219 13.277344 9.832031 C 13.871094 9.714844 15.136719 10.6875 15.195312 10.71875 C 15.253906 10.746094 14.902344 8.269531 15.699219 7.117188 C 16.496094 5.96875 19.535156 8.296875 21.863281 8.328125 C 24.195312 8.355469 29.828125 8.503906 31.480469 9.980469 C 33.132812 11.453125 32.277344 14.609375 32.277344 14.609375 C 32.277344 14.609375 34.164062 15.113281 33.78125 17.769531 C 33.398438 20.421875 30.417969 22.703125 29.355469 24.617188 C 28.292969 26.53125 21.984375 26.882812 21.007812 24.109375 " fill-opacity="1" fill-rule="nonzero"/><path fill="#ffb5a6" d="M 23.023438 33.410156 C 19.996094 33.410156 19.550781 30.886719 19.539062 30.460938 C 19.539062 30.410156 19.535156 30.324219 19.539062 30.210938 C 19.535156 29.972656 19.535156 29.605469 19.535156 29.179688 C 19.546875 28.027344 19.558594 26.4375 19.539062 25.753906 L 25.3125 23.6875 L 26.363281 23.308594 L 27.527344 22.894531 C 27.527344 22.894531 27.523438 23.121094 27.507812 23.492188 C 27.503906 23.703125 27.496094 23.964844 27.492188 24.265625 C 27.492188 24.300781 27.488281 24.335938 27.484375 24.371094 C 27.480469 24.800781 27.472656 25.296875 27.460938 25.816406 C 27.441406 27.441406 27.4375 29.273438 27.523438 29.929688 C 27.679688 31.210938 26.046875 33.410156 23.023438 33.410156 Z M 23.023438 33.410156 " fill-opacity="1" fill-rule="nonzero"/><path fill="#e86b70" d="M 27.53125 24.277344 C 27.519531 24.308594 27.503906 24.339844 27.484375 24.371094 C 25.4375 28.582031 22.355469 30.253906 19.539062 30.210938 C 19.535156 29.972656 19.535156 29.605469 19.535156 29.179688 C 19.546875 28.027344 19.558594 26.4375 19.539062 25.753906 L 25.3125 23.6875 L 27.492188 24.265625 Z M 27.53125 24.277344 " fill-opacity="1" fill-rule="nonzero"/><path fill="#ffb5a6" d="M 16.054688 13.195312 C 19.417969 17.226562 27.726562 16.5 27.726562 16.5 C 27.726562 16.5 27.882812 21.21875 28.707031 21.179688 C 29.535156 21.140625 29.671875 18.523438 31.699219 18.957031 C 33.722656 19.390625 32.464844 23.304688 30.890625 23.519531 C 29.316406 23.738281 28.925781 22.398438 28.925781 22.398438 C 28.925781 22.398438 26.023438 28.152344 21.421875 28.152344 C 16.820312 28.152344 15.640625 23.742188 15.667969 21.335938 C 15.695312 18.933594 16.054688 13.195312 16.054688 13.195312 Z M 16.054688 13.195312 " fill-opacity="1" fill-rule="nonzero"/></svg>