<svg xmlns="http://www.w3.org/2000/svg" xmlns:xlink="http://www.w3.org/1999/xlink" width="500" zoomAndPan="magnify" viewBox="0 0 375 374.999991" height="500" preserveAspectRatio="xMidYMid meet" version="1.0"><path fill="#000000" d="M 373.007812 174.5 L 368.628906 162.15625 C 366.242188 155.386719 358.679688 149.8125 351.910156 149.8125 L 336.386719 149.8125 C 324.839844 117.5625 310.90625 78.539062 306.527344 69.382812 C 300.160156 55.046875 279.855469 48.679688 268.710938 45.492188 C 268.710938 45.492188 250 38.324219 187.5 38.324219 C 125 38.324219 106.6875 45.492188 106.6875 45.492188 C 93.550781 49.871094 75.238281 56.242188 68.074219 69.78125 C 64.492188 76.550781 50.160156 116.367188 38.613281 149.8125 L 23.488281 149.8125 C 16.71875 149.8125 9.15625 155.386719 6.765625 162.15625 L 2.386719 174.5 C 0 181.269531 3.582031 186.84375 10.351562 186.84375 L 25.875 186.84375 C 23.886719 192.417969 22.691406 195.601562 22.691406 195.601562 C 21.496094 197.59375 20.699219 206.75 20.699219 209.539062 L 20.699219 322.21875 C 20.699219 329.386719 26.671875 335.359375 33.835938 335.359375 L 81.609375 335.359375 C 88.773438 335.359375 94.746094 329.386719 94.746094 322.21875 L 94.746094 298.328125 L 280.652344 298.328125 L 280.652344 322.21875 C 280.652344 329.386719 286.625 335.359375 293.789062 335.359375 L 341.957031 335.359375 C 349.125 335.359375 355.09375 329.386719 355.09375 322.21875 L 355.09375 209.539062 C 355.09375 207.148438 354.300781 197.59375 353.105469 195.601562 C 353.105469 195.601562 351.910156 192.417969 349.921875 186.84375 L 365.046875 186.84375 C 371.417969 186.84375 375 181.269531 373.007812 174.5 Z M 94.746094 243.78125 L 78.820312 233.03125 C 49.363281 230.640625 45.78125 240.992188 39.410156 229.84375 L 39.410156 216.304688 C 39.410156 203.167969 46.972656 202.769531 55.335938 202.769531 C 63.296875 202.769531 79.21875 209.539062 89.96875 214.316406 C 101.511719 219.492188 109.871094 215.113281 114.25 232.234375 C 113.851562 240.195312 109.472656 243.78125 94.746094 243.78125 Z M 66.878906 154.988281 C 76.832031 114.375 93.550781 86.105469 95.941406 79.335938 C 97.53125 74.558594 93.550781 65.800781 187.898438 65.800781 C 282.246094 65.800781 277.070312 78.539062 277.46875 78.9375 C 281.847656 88.097656 299.363281 117.960938 308.519531 154.988281 C 308.519531 154.988281 273.089844 159.765625 192.277344 159.765625 C 111.464844 159.765625 66.878906 154.988281 66.878906 154.988281 Z M 261.542969 232.234375 C 280.253906 209.140625 274.285156 219.492188 285.828125 214.316406 C 296.179688 209.539062 312.5 202.769531 320.460938 202.769531 C 328.820312 202.769531 336.386719 203.167969 336.386719 216.304688 L 336.386719 229.84375 C 330.414062 240.59375 325.238281 231.039062 295.382812 233.824219 L 280.652344 243.382812 C 265.921875 243.78125 256.371094 238.207031 261.542969 232.234375 Z M 261.542969 232.234375 " fill-opacity="1" fill-rule="nonzero"/></svg>