<svg xmlns="http://www.w3.org/2000/svg" xmlns:xlink="http://www.w3.org/1999/xlink" width="500" zoomAndPan="magnify" viewBox="0 0 375 374.999991" height="500" preserveAspectRatio="xMidYMid meet" version="1.0"><path fill="#183668" d="M 154.835938 86.542969 C 154.296875 86.195312 154.183594 85.824219 153.964844 85.261719 C 144.628906 61.160156 135.296875 37.058594 125.964844 12.953125 C 125.402344 11.503906 125.585938 10.617188 127.089844 10.101562 C 143.753906 4.433594 160.886719 1.179688 178.492188 0.339844 C 180.195312 0.257812 181.945312 -0.0117188 181.945312 2.121094 C 181.949219 28.21875 181.949219 54.3125 181.945312 80.410156 C 181.945312 81.570312 181.316406 82.183594 180.210938 82.257812 C 171.980469 82.835938 163.980469 84.328125 156.222656 86.734375 C 155.730469 86.886719 155.269531 86.820312 154.835938 86.542969 Z M 154.835938 86.542969 " fill-opacity="1" fill-rule="nonzero"/><path fill="#eb1c2d" d="M 193.550781 81.988281 C 192.898438 81.519531 192.726562 81.09375 192.722656 80.25 C 192.722656 54.136719 192.722656 28.019531 192.722656 1.90625 C 192.722656 0.222656 194.429688 0.273438 195.628906 0.324219 C 213.394531 1.117188 230.683594 4.363281 247.503906 10.066406 C 248.976562 10.566406 249.363281 11.34375 248.808594 12.777344 C 239.453125 36.941406 230.09375 61.101562 220.738281 85.265625 C 220.199219 86.65625 219.542969 87.058594 218.113281 86.625 C 210.265625 84.234375 202.320312 82.777344 194.273438 82.246094 C 194.007812 82.226562 193.765625 82.140625 193.550781 81.988281 Z M 193.550781 81.988281 " fill-opacity="1" fill-rule="nonzero"/><path fill="#02558b" d="M 120.367188 104.785156 C 120.242188 104.71875 120.136719 104.632812 120.046875 104.53125 C 102.417969 85.191406 84.8125 65.871094 67.230469 46.574219 C 66.1875 45.429688 66.636719 44.535156 67.707031 43.636719 C 81.554688 32.039062 96.757812 22.640625 113.324219 15.4375 C 114.484375 14.933594 115.367188 15.386719 115.796875 16.492188 C 125.191406 40.746094 134.582031 64.996094 143.96875 89.246094 C 144.402344 90.371094 144.242188 91.285156 143.132812 91.808594 C 135.773438 95.285156 128.914062 99.558594 122.546875 104.628906 C 121.875 105.164062 121.148438 105.214844 120.367188 104.785156 Z M 120.367188 104.785156 " fill-opacity="1" fill-rule="nonzero"/><path fill="#d3a029" d="M 231.183594 91.5625 C 230.285156 91.097656 230.429688 90.039062 230.769531 89.167969 C 240.125 64.992188 249.488281 40.816406 258.851562 16.640625 C 259.355469 15.351562 260.171875 14.90625 261.453125 15.460938 C 277.714844 22.546875 292.671875 31.753906 306.320312 43.078125 C 307.785156 44.292969 308.851562 45.058594 307.289062 46.777344 C 290.234375 65.492188 273.183594 84.214844 256.136719 102.9375 C 255.207031 103.957031 253.910156 105.933594 252.28125 104.648438 C 247.460938 100.839844 242.339844 97.484375 236.917969 94.582031 C 235.011719 93.5625 233.101562 92.554688 231.183594 91.5625 Z M 231.183594 91.5625 " fill-opacity="1" fill-rule="nonzero"/><path fill="#5dbb46" d="M 56.75 53.59375 C 58.429688 51.945312 60.597656 55.265625 61.570312 56.339844 C 78.410156 74.816406 95.25 93.292969 112.085938 111.773438 C 112.972656 112.746094 112.441406 113.660156 111.632812 114.515625 C 106.382812 120.074219 101.550781 126.488281 97.136719 133.761719 C 96.441406 134.910156 95.332031 134.53125 94.269531 134.007812 C 71.242188 122.539062 48.21875 111.066406 25.191406 99.589844 C 23.769531 98.882812 23.246094 98.140625 24.078125 96.640625 C 32.957031 80.597656 43.847656 66.246094 56.75 53.59375 Z M 56.75 53.59375 " fill-opacity="1" fill-rule="nonzero"/><path fill="#279b48" d="M 320.929688 56.617188 C 332.625 68.613281 342.519531 81.957031 350.617188 96.644531 C 351.242188 97.78125 351.175781 98.761719 349.972656 99.367188 C 326.707031 110.953125 303.449219 122.539062 280.191406 134.128906 C 279.027344 134.710938 278.128906 134.703125 277.441406 133.546875 C 273.4375 126.808594 268.492188 120.304688 262.609375 114.03125 C 261.820312 113.1875 262.226562 112.207031 262.949219 111.414062 C 280.378906 92.28125 297.8125 73.148438 315.246094 54.019531 C 315.941406 53.253906 316.824219 52.75 317.726562 53.386719 C 318.710938 54.078125 320.066406 55.734375 320.929688 56.617188 Z M 320.929688 56.617188 " fill-opacity="1" fill-rule="nonzero"/><path fill="#007dbc" d="M 82.140625 171.21875 C 56.308594 168.910156 30.488281 166.453125 4.667969 164.039062 C 3.015625 163.886719 2.425781 163.3125 2.648438 161.660156 C 5.0625 143.75 9.964844 126.558594 17.355469 110.085938 C 17.832031 109.035156 18.683594 108.375 19.796875 108.925781 C 43.132812 120.550781 66.464844 132.175781 89.796875 143.804688 C 90.875 144.339844 91.367188 145.109375 90.886719 146.265625 C 87.785156 153.761719 85.566406 161.511719 84.226562 169.519531 C 84.019531 170.765625 83.386719 171.332031 82.140625 171.21875 Z M 82.140625 171.21875 " fill-opacity="1" fill-rule="nonzero"/><path fill="#c31f33" d="M 291.347656 171.019531 C 290.941406 170.746094 290.621094 170.375 290.539062 169.855469 C 289.210938 161.78125 286.992188 153.964844 283.875 146.410156 C 283.480469 145.453125 283.585938 144.457031 284.53125 143.988281 C 307.96875 132.3125 331.40625 120.636719 354.84375 108.960938 C 356.085938 108.34375 356.871094 109.035156 357.386719 110.183594 C 364.773438 126.648438 369.664062 143.832031 372.058594 161.734375 C 372.253906 163.207031 371.671875 163.890625 370.210938 164.023438 C 344.191406 166.441406 318.210938 168.851562 292.265625 171.253906 C 291.933594 171.285156 291.625 171.207031 291.347656 171.019531 Z M 291.347656 171.019531 " fill-opacity="1" fill-rule="nonzero"/><path fill="#48773e" d="M 80.449219 181.878906 C 81.953125 182.019531 82.898438 182.226562 82.863281 183.953125 C 82.6875 191.972656 83.417969 200.019531 85.054688 208.097656 C 85.285156 209.226562 84.847656 209.953125 83.75 210.265625 C 58.835938 217.371094 33.921875 224.46875 9.003906 231.558594 C 6.683594 232.21875 6.386719 231.316406 5.929688 229.351562 C 1.914062 212.117188 0.351562 194.648438 1.242188 176.957031 C 1.304688 175.71875 1.703125 174.578125 3.117188 174.707031 C 28.894531 177.105469 54.671875 179.496094 80.449219 181.878906 Z M 80.449219 181.878906 " fill-opacity="1" fill-rule="nonzero"/><path fill="#ef402b" d="M 290.46875 210.082031 C 289.574219 209.523438 289.484375 208.875 289.695312 207.835938 C 291.277344 200.109375 291.988281 192.304688 291.828125 184.417969 C 291.800781 183.105469 292.011719 182.089844 293.457031 181.953125 C 319.429688 179.550781 345.402344 177.144531 371.371094 174.730469 C 372.894531 174.589844 373.378906 175.410156 373.449219 176.832031 C 374.347656 194.527344 372.726562 212.300781 368.597656 230.148438 C 368.195312 231.878906 367.265625 232.003906 365.679688 231.550781 C 340.757812 224.457031 315.820312 217.359375 290.863281 210.253906 C 290.722656 210.214844 290.59375 210.15625 290.46875 210.082031 Z M 290.46875 210.082031 " fill-opacity="1" fill-rule="nonzero"/><path fill="#cf8d2a" d="M 88.242188 220.859375 C 88.535156 221.039062 88.738281 221.292969 88.851562 221.617188 C 91.121094 227.980469 94.027344 234.121094 97.566406 240.035156 C 98.292969 241.25 99.023438 242.460938 99.757812 243.675781 C 100.324219 244.613281 100.234375 245.445312 99.382812 246.09375 C 78.722656 261.710938 58.0625 277.324219 37.402344 292.933594 C 36.320312 293.75 35.246094 294.320312 34.320312 292.992188 C 23.949219 278.164062 15.898438 261.992188 10.160156 244.480469 C 9.578125 242.691406 10.78125 242.210938 12.3125 241.773438 C 37.078125 234.746094 61.839844 227.707031 86.597656 220.664062 C 87.28125 220.46875 87.675781 220.5 88.242188 220.859375 Z M 88.242188 220.859375 " fill-opacity="1" fill-rule="nonzero"/><path fill="#00aed9" d="M 275.277344 246.039062 C 274.433594 245.398438 274.394531 244.5 274.972656 243.605469 C 279.355469 236.820312 282.933594 229.632812 285.703125 222.039062 C 286.171875 220.761719 286.859375 220.304688 288.175781 220.679688 C 313.210938 227.808594 338.25 234.933594 363.285156 242.058594 C 364.789062 242.488281 364.859375 243.527344 364.414062 244.882812 C 358.785156 261.917969 350.875 277.816406 340.679688 292.570312 C 339.777344 293.875 338.980469 294.1875 337.675781 293.203125 C 316.859375 277.507812 296.0625 261.785156 275.277344 246.039062 Z M 275.277344 246.039062 " fill-opacity="1" fill-rule="nonzero"/><path fill="#f99d26" d="M 83.042969 341.085938 C 68.183594 331.058594 54.964844 318.914062 43.210938 304.742188 C 41.875 303.132812 42.753906 302.375 44.121094 301.339844 C 64.675781 285.8125 85.230469 270.28125 105.78125 254.746094 C 107.054688 253.785156 107.84375 254.457031 108.769531 255.503906 C 114.097656 261.550781 119.933594 266.859375 126.273438 271.429688 C 127.554688 272.355469 127.25 273.277344 126.5 274.488281 C 112.925781 296.425781 99.347656 318.363281 85.769531 340.300781 C 85.0625 341.441406 84.222656 341.878906 83.042969 341.085938 Z M 83.042969 341.085938 " fill-opacity="1" fill-rule="nonzero"/><path fill="#fdb713" d="M 289.753906 341.234375 C 289.507812 341.097656 289.3125 340.910156 289.164062 340.671875 C 275.8125 319.101562 262.429688 297.484375 249.011719 275.820312 C 248.371094 274.78125 246.664062 272.699219 248.140625 271.636719 C 254.625 266.96875 260.75 261.371094 266.519531 254.839844 C 267.207031 254.058594 268.203125 254.214844 269.011719 254.824219 C 289.464844 270.273438 309.917969 285.722656 330.367188 301.175781 C 331.679688 302.171875 332.9375 302.988281 331.621094 304.589844 C 320.0625 318.695312 306.746094 330.882812 291.675781 341.15625 C 291.058594 341.578125 290.414062 341.605469 289.753906 341.234375 Z M 289.753906 341.234375 " fill-opacity="1" fill-rule="nonzero"/><path fill="#e11484" d="M 95.882812 349.039062 C 94.753906 348.398438 93.882812 347.636719 94.695312 346.328125 C 108.488281 324.035156 122.285156 301.742188 136.085938 279.449219 C 136.730469 278.402344 137.820312 278.675781 138.800781 279.191406 C 145.761719 282.828125 153.273438 285.71875 161.339844 287.871094 C 162.582031 288.207031 162.65625 289.25 162.445312 290.40625 C 157.664062 315.988281 152.882812 341.570312 148.101562 367.152344 C 147.863281 368.425781 146.722656 368.570312 145.589844 368.3125 C 128.082031 364.289062 111.511719 357.867188 95.882812 349.039062 Z M 95.882812 349.039062 " fill-opacity="1" fill-rule="nonzero"/><path fill="#8f1838" d="M 229.328125 368.269531 C 228.082031 368.558594 226.804688 368.53125 226.511719 366.964844 C 221.765625 341.375 217.003906 315.785156 212.226562 290.199219 C 212.039062 289.210938 212.261719 288.167969 213.28125 287.894531 C 221.542969 285.65625 229.085938 282.75 235.917969 279.183594 C 236.953125 278.640625 237.980469 278.414062 238.65625 279.511719 C 252.289062 301.527344 265.917969 323.550781 279.542969 345.570312 C 280.171875 346.585938 280.84375 347.898438 279.457031 348.6875 C 263.859375 357.613281 247.148438 364.140625 229.328125 368.269531 Z M 229.328125 368.269531 " fill-opacity="1" fill-rule="nonzero"/><path fill="#f36d25" d="M 159.503906 370.824219 C 158.597656 370.1875 158.589844 369.621094 158.792969 368.527344 C 163.5625 342.980469 168.335938 317.433594 173.113281 291.886719 C 173.386719 290.410156 174.472656 290.355469 175.804688 290.5 C 183.4375 291.332031 191.414062 291.300781 199.730469 290.410156 C 201.09375 290.261719 201.480469 291.300781 201.707031 292.496094 C 206.449219 317.886719 211.191406 343.273438 215.933594 368.664062 C 216.1875 370.007812 215.765625 370.875 214.394531 371.070312 C 196.195312 373.671875 178.070312 373.660156 160.023438 371.03125 C 159.832031 371.003906 159.660156 370.933594 159.503906 370.824219 Z M 159.503906 370.824219 " fill-opacity="1" fill-rule="nonzero"/></svg>