<svg xmlns="http://www.w3.org/2000/svg" xmlns:xlink="http://www.w3.org/1999/xlink" width="500" zoomAndPan="magnify" viewBox="0 0 375 374.999991" height="500" preserveAspectRatio="xMidYMid meet" version="1.0"><path fill="#1d1d1b" d="M 187.488281 374.976562 C 162.183594 374.976562 137.625 370.019531 114.503906 360.238281 C 103.394531 355.535156 92.675781 349.722656 82.652344 342.945312 C 72.726562 336.242188 63.394531 328.542969 54.910156 320.058594 C 46.425781 311.574219 38.726562 302.242188 32.019531 292.316406 C 25.25 282.292969 19.429688 271.578125 14.730469 260.460938 C 4.960938 237.347656 0 212.792969 0 187.488281 C 0 162.183594 4.960938 137.625 14.742188 114.503906 C 19.441406 103.394531 25.253906 92.675781 32.03125 82.652344 C 38.738281 72.726562 46.4375 63.394531 54.921875 54.910156 C 63.402344 46.425781 72.734375 38.726562 82.660156 32.019531 C 92.683594 25.25 103.402344 19.429688 114.515625 14.730469 C 137.625 4.960938 162.183594 0 187.488281 0 C 212.792969 0 237.351562 4.960938 260.472656 14.742188 C 271.582031 19.441406 282.304688 25.253906 292.328125 32.03125 C 302.253906 38.738281 311.585938 46.4375 320.070312 54.921875 C 328.550781 63.402344 336.25 72.734375 342.957031 82.660156 C 349.726562 92.683594 355.546875 103.402344 360.25 114.515625 C 370.027344 137.636719 374.988281 162.191406 374.988281 187.5 C 374.988281 212.804688 370.027344 237.363281 360.25 260.484375 C 355.546875 271.59375 349.734375 282.316406 342.957031 292.335938 C 336.25 302.265625 328.550781 311.597656 320.070312 320.078125 C 311.585938 328.5625 302.253906 336.261719 292.328125 342.96875 C 282.304688 349.738281 271.589844 355.558594 260.472656 360.257812 C 237.347656 370.019531 212.792969 374.976562 187.488281 374.976562 Z M 187.488281 23.355469 C 96.980469 23.355469 23.355469 96.988281 23.355469 187.488281 C 23.355469 277.996094 96.988281 351.625 187.488281 351.625 C 277.996094 351.625 351.625 277.992188 351.625 187.488281 C 351.625 96.980469 277.992188 23.355469 187.488281 23.355469 Z M 187.488281 23.355469 " fill-opacity="1" fill-rule="nonzero"/><path fill="#1d1d1b" d="M 274.609375 124.167969 C 271.242188 124.167969 268.515625 126.894531 268.515625 130.261719 L 268.515625 181.914062 L 222.960938 181.914062 L 222.960938 130.261719 C 222.960938 126.894531 220.234375 124.167969 216.867188 124.167969 C 213.5 124.167969 210.773438 126.894531 210.773438 130.261719 L 210.773438 181.914062 L 165.222656 181.914062 L 165.222656 130.261719 C 165.222656 126.894531 162.492188 124.167969 159.125 124.167969 C 155.761719 124.167969 153.03125 126.894531 153.03125 130.261719 L 153.03125 181.914062 L 107.480469 181.914062 L 107.480469 130.261719 C 107.480469 126.894531 104.75 124.167969 101.386719 124.167969 C 98.019531 124.167969 95.289062 126.894531 95.289062 130.261719 L 95.289062 188.007812 C 95.289062 191.375 98.019531 194.101562 101.386719 194.101562 L 153.035156 194.101562 L 153.035156 245.753906 C 153.035156 249.121094 155.765625 251.851562 159.132812 251.851562 C 162.5 251.851562 165.226562 249.121094 165.226562 245.753906 L 165.226562 194.101562 L 210.777344 194.101562 L 210.777344 245.753906 C 210.777344 249.121094 213.507812 251.851562 216.875 251.851562 C 220.238281 251.851562 222.96875 249.121094 222.96875 245.753906 L 222.96875 194.101562 L 268.519531 194.101562 L 268.519531 245.753906 C 268.519531 249.121094 271.25 251.851562 274.613281 251.851562 C 277.980469 251.851562 280.710938 249.121094 280.710938 245.753906 L 280.710938 130.261719 C 280.703125 126.894531 277.976562 124.167969 274.609375 124.167969 Z M 274.609375 124.167969 " fill-opacity="1" fill-rule="nonzero"/><path fill="#000000" d="M 101.289062 98.332031 L 96.828125 98.332031 L 96.828125 108.273438 L 91.230469 108.273438 L 91.230469 81.109375 L 101.324219 81.109375 C 104.535156 81.109375 107.011719 81.824219 108.75 83.257812 C 110.488281 84.6875 111.359375 86.710938 111.359375 89.320312 C 111.359375 91.171875 110.960938 92.71875 110.15625 93.957031 C 109.355469 95.191406 108.140625 96.175781 106.507812 96.910156 L 112.382812 108.007812 L 112.382812 108.269531 L 106.371094 108.269531 Z M 96.828125 93.796875 L 101.34375 93.796875 C 102.746094 93.796875 103.832031 93.441406 104.605469 92.730469 C 105.378906 92.015625 105.761719 91.027344 105.761719 89.773438 C 105.761719 88.492188 105.398438 87.488281 104.671875 86.753906 C 103.941406 86.019531 102.828125 85.648438 101.320312 85.648438 L 96.824219 85.648438 L 96.824219 93.796875 Z M 96.828125 93.796875 " fill-opacity="1" fill-rule="nonzero"/><path fill="#000000" d="M 161.4375 108.273438 L 156.058594 108.273438 L 156.058594 87.519531 L 149.632812 89.515625 L 149.632812 85.136719 L 160.867188 81.109375 L 161.445312 81.109375 L 161.445312 108.273438 Z M 161.4375 108.273438 " fill-opacity="1" fill-rule="nonzero"/><path fill="#000000" d="M 168.527344 294.757812 L 150.160156 294.757812 L 150.160156 291.117188 L 158.828125 281.875 C 160.019531 280.574219 160.898438 279.441406 161.472656 278.472656 C 162.042969 277.503906 162.324219 276.582031 162.324219 275.710938 C 162.324219 274.523438 162.023438 273.589844 161.421875 272.90625 C 160.824219 272.226562 159.964844 271.886719 158.84375 271.886719 C 157.640625 271.886719 156.695312 272.300781 156.003906 273.128906 C 155.3125 273.957031 154.964844 275.046875 154.964844 276.390625 L 149.628906 276.390625 C 149.628906 274.761719 150.015625 273.269531 150.792969 271.917969 C 151.574219 270.566406 152.675781 269.507812 154.097656 268.746094 C 155.515625 267.980469 157.132812 267.59375 158.9375 267.59375 C 161.699219 267.59375 163.84375 268.261719 165.367188 269.582031 C 166.890625 270.90625 167.660156 272.777344 167.660156 275.199219 C 167.660156 276.523438 167.3125 277.871094 166.625 279.246094 C 165.941406 280.617188 164.761719 282.222656 163.09375 284.050781 L 157.003906 290.472656 L 168.523438 290.472656 L 168.523438 294.757812 Z M 168.527344 294.757812 " fill-opacity="1" fill-rule="nonzero"/><path fill="#000000" d="M 213.65625 91.476562 L 216.453125 91.476562 C 217.78125 91.476562 218.769531 91.140625 219.414062 90.476562 C 220.054688 89.8125 220.375 88.925781 220.375 87.824219 C 220.375 86.757812 220.054688 85.925781 219.421875 85.335938 C 218.785156 84.742188 217.917969 84.445312 216.796875 84.445312 C 215.792969 84.445312 214.949219 84.722656 214.273438 85.273438 C 213.597656 85.824219 213.257812 86.542969 213.257812 87.421875 L 208.011719 87.421875 C 208.011719 86.042969 208.382812 84.808594 209.128906 83.710938 C 209.875 82.613281 210.914062 81.757812 212.253906 81.144531 C 213.589844 80.527344 215.0625 80.21875 216.671875 80.21875 C 219.46875 80.21875 221.660156 80.890625 223.242188 82.222656 C 224.828125 83.566406 225.621094 85.40625 225.621094 87.753906 C 225.621094 88.960938 225.253906 90.074219 224.515625 91.089844 C 223.773438 92.105469 222.804688 92.890625 221.605469 93.429688 C 223.097656 93.964844 224.207031 94.761719 224.941406 95.832031 C 225.675781 96.894531 226.039062 98.152344 226.039062 99.605469 C 226.039062 101.957031 225.183594 103.839844 223.472656 105.253906 C 221.757812 106.667969 219.492188 107.378906 216.671875 107.378906 C 214.035156 107.378906 211.875 106.679688 210.199219 105.292969 C 208.523438 103.898438 207.6875 102.058594 207.6875 99.773438 L 212.933594 99.773438 C 212.933594 100.769531 213.308594 101.578125 214.050781 102.207031 C 214.796875 102.832031 215.710938 103.152344 216.804688 103.152344 C 218.050781 103.152344 219.027344 102.824219 219.738281 102.164062 C 220.445312 101.503906 220.800781 100.628906 220.800781 99.535156 C 220.800781 96.898438 219.347656 95.582031 216.445312 95.582031 L 213.667969 95.582031 L 213.667969 91.476562 Z M 213.65625 91.476562 " fill-opacity="1" fill-rule="nonzero"/><path fill="#000000" d="M 221.617188 284.535156 L 224.699219 284.535156 L 224.699219 288.878906 L 221.617188 288.878906 L 221.617188 294.753906 L 216.226562 294.753906 L 216.226562 288.878906 L 205.089844 288.878906 L 204.84375 285.484375 L 216.171875 267.59375 L 221.617188 267.59375 Z M 210.222656 284.535156 L 216.230469 284.535156 L 216.230469 274.949219 L 215.875 275.566406 Z M 210.222656 284.535156 " fill-opacity="1" fill-rule="nonzero"/><path fill="#000000" d="M 266.226562 94.734375 L 267.773438 81.117188 L 282.789062 81.117188 L 282.789062 85.554688 L 272.132812 85.554688 L 271.46875 91.3125 C 272.734375 90.636719 274.074219 90.300781 275.5 90.300781 C 278.050781 90.300781 280.050781 91.089844 281.5 92.675781 C 282.945312 94.257812 283.671875 96.472656 283.671875 99.316406 C 283.671875 101.042969 283.304688 102.59375 282.574219 103.960938 C 281.84375 105.328125 280.796875 106.394531 279.433594 107.144531 C 278.074219 107.902344 276.46875 108.273438 274.613281 108.273438 C 272.992188 108.273438 271.492188 107.945312 270.109375 107.292969 C 268.71875 106.636719 267.628906 105.714844 266.824219 104.519531 C 266.019531 103.332031 265.589844 101.972656 265.542969 100.449219 L 270.804688 100.449219 C 270.914062 101.570312 271.300781 102.433594 271.972656 103.054688 C 272.640625 103.675781 273.511719 103.984375 274.59375 103.984375 C 275.792969 103.984375 276.722656 103.550781 277.371094 102.6875 C 278.019531 101.824219 278.34375 100.597656 278.34375 99.019531 C 278.34375 97.496094 277.96875 96.332031 277.21875 95.523438 C 276.472656 94.710938 275.410156 94.304688 274.035156 94.304688 C 272.773438 94.304688 271.75 94.636719 270.960938 95.300781 L 270.449219 95.78125 Z M 266.226562 94.734375 " fill-opacity="1" fill-rule="nonzero"/><path fill="#000000" d="M 279.738281 267.59375 L 279.738281 271.929688 L 279.230469 271.929688 C 276.847656 271.96875 274.933594 272.582031 273.480469 273.789062 C 272.027344 274.992188 271.15625 276.664062 270.863281 278.796875 C 272.273438 277.363281 274.050781 276.644531 276.203125 276.644531 C 278.511719 276.644531 280.34375 277.472656 281.703125 279.121094 C 283.066406 280.773438 283.746094 282.945312 283.746094 285.644531 C 283.746094 287.367188 283.375 288.929688 282.628906 290.324219 C 281.882812 291.714844 280.824219 292.808594 279.457031 293.582031 C 278.089844 294.359375 276.542969 294.746094 274.820312 294.746094 C 272.027344 294.746094 269.773438 293.773438 268.054688 291.835938 C 266.335938 289.890625 265.476562 287.300781 265.476562 284.054688 L 265.476562 282.15625 C 265.476562 279.277344 266.023438 276.738281 267.109375 274.535156 C 268.195312 272.328125 269.757812 270.621094 271.789062 269.417969 C 273.820312 268.207031 276.179688 267.59375 278.867188 267.585938 L 279.738281 267.585938 Z M 274.597656 280.894531 C 273.75 280.894531 272.976562 281.113281 272.285156 281.558594 C 271.59375 282 271.082031 282.585938 270.757812 283.3125 L 270.757812 284.914062 C 270.757812 286.667969 271.101562 288.042969 271.792969 289.03125 C 272.484375 290.019531 273.457031 290.511719 274.707031 290.511719 C 275.835938 290.511719 276.75 290.070312 277.445312 289.175781 C 278.144531 288.285156 278.496094 287.128906 278.496094 285.714844 C 278.496094 284.269531 278.144531 283.109375 277.433594 282.222656 C 276.738281 281.335938 275.785156 280.894531 274.597656 280.894531 Z M 274.597656 280.894531 " fill-opacity="1" fill-rule="nonzero"/></svg>