<svg xmlns="http://www.w3.org/2000/svg" xmlns:xlink="http://www.w3.org/1999/xlink" width="500" zoomAndPan="magnify" viewBox="0 0 375 374.999991" height="500" preserveAspectRatio="xMidYMid meet" version="1.0"><path fill="#000000" d="M 258.929688 150.527344 C 253.855469 151.605469 249.273438 152.503906 245.398438 153.144531 C 245.078125 153.203125 244.761719 153.25 244.445312 153.296875 C 241.359375 153.765625 238.316406 153.847656 235.351562 153.578125 C 222.179688 152.382812 210.648438 144.269531 204.894531 132.578125 C 202.84375 128.429688 201.53125 123.824219 201.128906 118.921875 L 200.183594 107.410156 L 196.164062 58.597656 C 246.90625 61.550781 289.773438 93.796875 308.117188 138.679688 C 291.28125 143.023438 273.191406 147.492188 258.929688 150.527344 Z M 188.542969 219.195312 C 171.039062 219.195312 156.84375 205.003906 156.84375 187.5 C 156.84375 169.996094 171.039062 155.804688 188.542969 155.804688 C 206.046875 155.804688 220.238281 169.996094 220.238281 187.5 C 220.238281 205.003906 206.046875 219.195312 188.542969 219.195312 Z M 178.222656 58.773438 C 177.324219 74.277344 176.246094 90.894531 175.058594 104.957031 C 174.789062 108.144531 174.519531 111.191406 174.242188 114.070312 C 174.167969 114.871094 174.074219 115.648438 173.980469 116.417969 C 173.214844 122.359375 171.21875 127.808594 168.292969 132.578125 C 161.667969 143.375 150.269531 150.679688 137.558594 152.285156 C 132.738281 152.898438 127.730469 152.6875 122.722656 151.539062 L 116.976562 150.273438 L 116.972656 150.273438 L 68.589844 139.597656 C 86.398438 95.039062 128.316406 62.722656 178.222656 58.773438 Z M 63.367188 155.667969 C 77.691406 161.195312 92.886719 167.238281 105.261719 172.597656 C 113.839844 176.316406 121.066406 179.699219 125.707031 182.347656 C 126.160156 182.613281 126.609375 182.875 127.046875 183.148438 C 127.222656 183.257812 127.394531 183.367188 127.566406 183.472656 C 139.820312 191.257812 145.328125 205.667969 142.84375 219.304688 C 142.101562 223.367188 140.652344 227.359375 138.460938 231.085938 L 129.890625 245.371094 L 105.351562 286.257812 C 77.257812 262.570312 59.410156 227.125 59.410156 187.5 C 59.410156 176.511719 60.785156 165.851562 63.367188 155.667969 Z M 188.542969 316.632812 C 163.730469 316.632812 140.558594 309.632812 120.882812 297.503906 C 131.78125 284.792969 143.476562 270.589844 153.097656 257.617188 C 154.019531 256.375 154.921875 255.140625 155.804688 253.917969 C 160.804688 247.003906 165.917969 242.304688 170.917969 239.222656 C 178.699219 234.417969 186.195312 233.527344 192.507812 234.277344 C 196.304688 234.734375 199.949219 235.878906 203.3125 237.582031 C 207.601562 239.769531 211.441406 242.875 214.566406 246.636719 L 222.722656 256.574219 L 256.289062 297.449219 C 236.59375 309.613281 213.390625 316.632812 188.542969 316.632812 Z M 317.675781 187.5 C 317.675781 226.679688 300.222656 261.785156 272.671875 285.464844 C 263.371094 269.523438 252.9375 252.308594 243.867188 238.996094 C 242.421875 236.871094 241.011719 234.847656 239.640625 232.941406 C 234.472656 225.734375 231.785156 219.363281 230.738281 213.804688 C 229.300781 206.21875 230.910156 200.167969 233.375 195.617188 C 235.832031 191.089844 239.625 187.46875 244.105469 184.960938 C 245.128906 184.386719 246.191406 183.871094 247.277344 183.417969 L 261.414062 177.519531 L 313.726562 155.695312 C 316.304688 165.871094 317.675781 176.523438 317.675781 187.5 Z M 187.5 0 C 83.945312 0 0 83.945312 0 187.5 C 0 291.050781 83.945312 375 187.5 375 C 291.050781 375 375 291.050781 375 187.5 C 375 83.945312 291.050781 0 187.5 0 " fill-opacity="1" fill-rule="nonzero"/></svg>